<svg width="326" height="524" viewBox="0 0 326 524" fill="none" xmlns="http://www.w3.org/2000/svg">
<path d="M28.5 91C48.4975 125.167 76.4941 208.3 28.5 267.5C-19.4941 326.7 8.50248 432.5 28.5 478" stroke="black" stroke-width="4" stroke-dasharray="10 10"/>
<path d="M82.48 113.1V114.96H78.78V127H76.5V114.96H72.78V113.1H82.48ZM94.8891 121.22C94.8891 121.633 94.8624 122.007 94.8091 122.34H86.3891C86.4557 123.22 86.7824 123.927 87.3691 124.46C87.9557 124.993 88.6757 125.26 89.5291 125.26C90.7557 125.26 91.6224 124.747 92.1291 123.72H94.5891C94.2557 124.733 93.6491 125.567 92.7691 126.22C91.9024 126.86 90.8224 127.18 89.5291 127.18C88.4757 127.18 87.5291 126.947 86.6891 126.48C85.8624 126 85.2091 125.333 84.7291 124.48C84.2624 123.613 84.0291 122.613 84.0291 121.48C84.0291 120.347 84.2557 119.353 84.7091 118.5C85.1757 117.633 85.8224 116.967 86.6491 116.5C87.4891 116.033 88.4491 115.8 89.5291 115.8C90.5691 115.8 91.4957 116.027 92.3091 116.48C93.1224 116.933 93.7557 117.573 94.2091 118.4C94.6624 119.213 94.8891 120.153 94.8891 121.22ZM92.5091 120.5C92.4957 119.66 92.1957 118.987 91.6091 118.48C91.0224 117.973 90.2957 117.72 89.4291 117.72C88.6424 117.72 87.9691 117.973 87.4091 118.48C86.8491 118.973 86.5157 119.647 86.4091 120.5H92.5091ZM96.3728 121.48C96.3728 120.347 96.5995 119.353 97.0528 118.5C97.5195 117.633 98.1595 116.967 98.9728 116.5C99.7861 116.033 100.719 115.8 101.773 115.8C103.106 115.8 104.206 116.12 105.073 116.76C105.953 117.387 106.546 118.287 106.853 119.46H104.393C104.193 118.913 103.873 118.487 103.433 118.18C102.993 117.873 102.439 117.72 101.773 117.72C100.839 117.72 100.093 118.053 99.5328 118.72C98.9861 119.373 98.7128 120.293 98.7128 121.48C98.7128 122.667 98.9861 123.593 99.5328 124.26C100.093 124.927 100.839 125.26 101.773 125.26C103.093 125.26 103.966 124.68 104.393 123.52H106.853C106.533 124.64 105.933 125.533 105.053 126.2C104.173 126.853 103.079 127.18 101.773 127.18C100.719 127.18 99.7861 126.947 98.9728 126.48C98.1595 126 97.5195 125.333 97.0528 124.48C96.5995 123.613 96.3728 122.613 96.3728 121.48ZM114.825 115.8C115.665 115.8 116.412 115.98 117.065 116.34C117.732 116.7 118.252 117.233 118.625 117.94C119.012 118.647 119.205 119.5 119.205 120.5V127H116.945V120.84C116.945 119.853 116.698 119.1 116.205 118.58C115.712 118.047 115.038 117.78 114.185 117.78C113.332 117.78 112.652 118.047 112.145 118.58C111.652 119.1 111.405 119.853 111.405 120.84V127H109.125V112.2H111.405V117.26C111.792 116.793 112.278 116.433 112.865 116.18C113.465 115.927 114.118 115.8 114.825 115.8ZM127.673 115.8C128.54 115.8 129.313 115.98 129.993 116.34C130.687 116.7 131.227 117.233 131.613 117.94C132 118.647 132.193 119.5 132.193 120.5V127H129.933V120.84C129.933 119.853 129.687 119.1 129.193 118.58C128.7 118.047 128.027 117.78 127.173 117.78C126.32 117.78 125.64 118.047 125.133 118.58C124.64 119.1 124.393 119.853 124.393 120.84V127H122.113V115.98H124.393V117.24C124.767 116.787 125.24 116.433 125.813 116.18C126.4 115.927 127.02 115.8 127.673 115.8ZM136.262 114.52C135.848 114.52 135.502 114.38 135.222 114.1C134.942 113.82 134.802 113.473 134.802 113.06C134.802 112.647 134.942 112.3 135.222 112.02C135.502 111.74 135.848 111.6 136.262 111.6C136.662 111.6 137.002 111.74 137.282 112.02C137.562 112.3 137.702 112.647 137.702 113.06C137.702 113.473 137.562 113.82 137.282 114.1C137.002 114.38 136.662 114.52 136.262 114.52ZM137.382 115.98V127H135.102V115.98H137.382ZM139.615 121.48C139.615 120.347 139.842 119.353 140.295 118.5C140.762 117.633 141.402 116.967 142.215 116.5C143.028 116.033 143.962 115.8 145.015 115.8C146.348 115.8 147.448 116.12 148.315 116.76C149.195 117.387 149.788 118.287 150.095 119.46H147.635C147.435 118.913 147.115 118.487 146.675 118.18C146.235 117.873 145.682 117.72 145.015 117.72C144.082 117.72 143.335 118.053 142.775 118.72C142.228 119.373 141.955 120.293 141.955 121.48C141.955 122.667 142.228 123.593 142.775 124.26C143.335 124.927 144.082 125.26 145.015 125.26C146.335 125.26 147.208 124.68 147.635 123.52H150.095C149.775 124.64 149.175 125.533 148.295 126.2C147.415 126.853 146.322 127.18 145.015 127.18C143.962 127.18 143.028 126.947 142.215 126.48C141.402 126 140.762 125.333 140.295 124.48C139.842 123.613 139.615 122.613 139.615 121.48ZM151.607 121.44C151.607 120.333 151.834 119.353 152.287 118.5C152.754 117.647 153.381 116.987 154.167 116.52C154.967 116.04 155.847 115.8 156.807 115.8C157.674 115.8 158.427 115.973 159.067 116.32C159.721 116.653 160.241 117.073 160.627 117.58V115.98H162.927V127H160.627V125.36C160.241 125.88 159.714 126.313 159.047 126.66C158.381 127.007 157.621 127.18 156.767 127.18C155.821 127.18 154.954 126.94 154.167 126.46C153.381 125.967 152.754 125.287 152.287 124.42C151.834 123.54 151.607 122.547 151.607 121.44ZM160.627 121.48C160.627 120.72 160.467 120.06 160.147 119.5C159.841 118.94 159.434 118.513 158.927 118.22C158.421 117.927 157.874 117.78 157.287 117.78C156.701 117.78 156.154 117.927 155.647 118.22C155.141 118.5 154.727 118.92 154.407 119.48C154.101 120.027 153.947 120.68 153.947 121.44C153.947 122.2 154.101 122.867 154.407 123.44C154.727 124.013 155.141 124.453 155.647 124.76C156.167 125.053 156.714 125.2 157.287 125.2C157.874 125.2 158.421 125.053 158.927 124.76C159.434 124.467 159.841 124.04 160.147 123.48C160.467 122.907 160.627 122.24 160.627 121.48ZM168.202 112.2V127H165.922V112.2H168.202ZM191.031 113.1V127H188.751V117.48L184.511 127H182.931L178.671 117.48V127H176.391V113.1H178.851L183.731 124L188.591 113.1H191.031ZM204.127 121.22C204.127 121.633 204.101 122.007 204.047 122.34H195.627C195.694 123.22 196.021 123.927 196.607 124.46C197.194 124.993 197.914 125.26 198.767 125.26C199.994 125.26 200.861 124.747 201.367 123.72H203.827C203.494 124.733 202.887 125.567 202.007 126.22C201.141 126.86 200.061 127.18 198.767 127.18C197.714 127.18 196.767 126.947 195.927 126.48C195.101 126 194.447 125.333 193.967 124.48C193.501 123.613 193.267 122.613 193.267 121.48C193.267 120.347 193.494 119.353 193.947 118.5C194.414 117.633 195.061 116.967 195.887 116.5C196.727 116.033 197.687 115.8 198.767 115.8C199.807 115.8 200.734 116.027 201.547 116.48C202.361 116.933 202.994 117.573 203.447 118.4C203.901 119.213 204.127 120.153 204.127 121.22ZM201.747 120.5C201.734 119.66 201.434 118.987 200.847 118.48C200.261 117.973 199.534 117.72 198.667 117.72C197.881 117.72 197.207 117.973 196.647 118.48C196.087 118.973 195.754 119.647 195.647 120.5H201.747ZM216.471 121.22C216.471 121.633 216.444 122.007 216.391 122.34H207.971C208.038 123.22 208.364 123.927 208.951 124.46C209.538 124.993 210.258 125.26 211.111 125.26C212.338 125.26 213.204 124.747 213.711 123.72H216.171C215.838 124.733 215.231 125.567 214.351 126.22C213.484 126.86 212.404 127.18 211.111 127.18C210.058 127.18 209.111 126.947 208.271 126.48C207.444 126 206.791 125.333 206.311 124.48C205.844 123.613 205.611 122.613 205.611 121.48C205.611 120.347 205.838 119.353 206.291 118.5C206.758 117.633 207.404 116.967 208.231 116.5C209.071 116.033 210.031 115.8 211.111 115.8C212.151 115.8 213.078 116.027 213.891 116.48C214.704 116.933 215.338 117.573 215.791 118.4C216.244 119.213 216.471 120.153 216.471 121.22ZM214.091 120.5C214.078 119.66 213.778 118.987 213.191 118.48C212.604 117.973 211.878 117.72 211.011 117.72C210.224 117.72 209.551 117.973 208.991 118.48C208.431 118.973 208.098 119.647 207.991 120.5H214.091ZM221.375 117.84V123.94C221.375 124.353 221.468 124.653 221.655 124.84C221.855 125.013 222.188 125.1 222.655 125.1H224.055V127H222.255C221.228 127 220.442 126.76 219.895 126.28C219.348 125.8 219.075 125.02 219.075 123.94V117.84H217.775V115.98H219.075V113.24H221.375V115.98H224.055V117.84H221.375ZM227.316 114.52C226.903 114.52 226.556 114.38 226.276 114.1C225.996 113.82 225.856 113.473 225.856 113.06C225.856 112.647 225.996 112.3 226.276 112.02C226.556 111.74 226.903 111.6 227.316 111.6C227.716 111.6 228.056 111.74 228.336 112.02C228.616 112.3 228.756 112.647 228.756 113.06C228.756 113.473 228.616 113.82 228.336 114.1C228.056 114.38 227.716 114.52 227.316 114.52ZM228.436 115.98V127H226.156V115.98H228.436ZM236.99 115.8C237.856 115.8 238.63 115.98 239.31 116.34C240.003 116.7 240.543 117.233 240.93 117.94C241.316 118.647 241.51 119.5 241.51 120.5V127H239.25V120.84C239.25 119.853 239.003 119.1 238.51 118.58C238.016 118.047 237.343 117.78 236.49 117.78C235.636 117.78 234.956 118.047 234.45 118.58C233.956 119.1 233.71 119.853 233.71 120.84V127H231.43V115.98H233.71V117.24C234.083 116.787 234.556 116.433 235.13 116.18C235.716 115.927 236.336 115.8 236.99 115.8ZM248.858 115.8C249.711 115.8 250.465 115.973 251.118 116.32C251.785 116.653 252.305 117.073 252.678 117.58V115.98H254.978V127.18C254.978 128.193 254.765 129.093 254.338 129.88C253.911 130.68 253.291 131.307 252.478 131.76C251.678 132.213 250.718 132.44 249.598 132.44C248.105 132.44 246.865 132.087 245.878 131.38C244.891 130.687 244.331 129.74 244.198 128.54H246.458C246.631 129.113 246.998 129.573 247.558 129.92C248.131 130.28 248.811 130.46 249.598 130.46C250.518 130.46 251.258 130.18 251.818 129.62C252.391 129.06 252.678 128.247 252.678 127.18V125.34C252.291 125.86 251.765 126.3 251.098 126.66C250.445 127.007 249.698 127.18 248.858 127.18C247.898 127.18 247.018 126.94 246.218 126.46C245.431 125.967 244.805 125.287 244.338 124.42C243.885 123.54 243.658 122.547 243.658 121.44C243.658 120.333 243.885 119.353 244.338 118.5C244.805 117.647 245.431 116.987 246.218 116.52C247.018 116.04 247.898 115.8 248.858 115.8ZM252.678 121.48C252.678 120.72 252.518 120.06 252.198 119.5C251.891 118.94 251.485 118.513 250.978 118.22C250.471 117.927 249.925 117.78 249.338 117.78C248.751 117.78 248.205 117.927 247.698 118.22C247.191 118.5 246.778 118.92 246.458 119.48C246.151 120.027 245.998 120.68 245.998 121.44C245.998 122.2 246.151 122.867 246.458 123.44C246.778 124.013 247.191 124.453 247.698 124.76C248.218 125.053 248.765 125.2 249.338 125.2C249.925 125.2 250.471 125.053 250.978 124.76C251.485 124.467 251.891 124.04 252.198 123.48C252.518 122.907 252.678 122.24 252.678 121.48Z" fill="#6E6E6E"/>
<path d="M71.88 513.16H66.06L65.06 516H62.68L67.66 502.08H70.3L75.28 516H72.88L71.88 513.16ZM71.24 511.3L68.98 504.84L66.7 511.3H71.24ZM92.2453 504.98L88.8253 516H86.4253L84.2053 507.86L81.9853 516H79.5853L76.1453 504.98H78.4653L80.7653 513.84L83.1053 504.98H85.4853L87.7253 513.8L90.0053 504.98H92.2453ZM93.1892 510.44C93.1892 509.333 93.4159 508.353 93.8692 507.5C94.3359 506.647 94.9626 505.987 95.7492 505.52C96.5492 505.04 97.4292 504.8 98.3892 504.8C99.2559 504.8 100.009 504.973 100.649 505.32C101.303 505.653 101.823 506.073 102.209 506.58V504.98H104.509V516H102.209V514.36C101.823 514.88 101.296 515.313 100.629 515.66C99.9626 516.007 99.2026 516.18 98.3492 516.18C97.4026 516.18 96.5359 515.94 95.7492 515.46C94.9626 514.967 94.3359 514.287 93.8692 513.42C93.4159 512.54 93.1892 511.547 93.1892 510.44ZM102.209 510.48C102.209 509.72 102.049 509.06 101.729 508.5C101.423 507.94 101.016 507.513 100.509 507.22C100.003 506.927 99.4559 506.78 98.8692 506.78C98.2826 506.78 97.7359 506.927 97.2292 507.22C96.7226 507.5 96.3092 507.92 95.9892 508.48C95.6826 509.027 95.5292 509.68 95.5292 510.44C95.5292 511.2 95.6826 511.867 95.9892 512.44C96.3092 513.013 96.7226 513.453 97.2292 513.76C97.7492 514.053 98.2959 514.2 98.8692 514.2C99.4559 514.2 100.003 514.053 100.509 513.76C101.016 513.467 101.423 513.04 101.729 512.48C102.049 511.907 102.209 511.24 102.209 510.48ZM109.784 506.58C110.117 506.02 110.557 505.587 111.104 505.28C111.664 504.96 112.324 504.8 113.084 504.8V507.16H112.504C111.611 507.16 110.931 507.387 110.464 507.84C110.011 508.293 109.784 509.08 109.784 510.2V516H107.504V504.98H109.784V506.58ZM114.42 510.44C114.42 509.333 114.646 508.353 115.1 507.5C115.566 506.647 116.193 505.987 116.98 505.52C117.78 505.04 118.666 504.8 119.64 504.8C120.36 504.8 121.066 504.96 121.76 505.28C122.466 505.587 123.026 506 123.44 506.52V501.2H125.74V516H123.44V514.34C123.066 514.873 122.546 515.313 121.88 515.66C121.226 516.007 120.473 516.18 119.62 516.18C118.66 516.18 117.78 515.94 116.98 515.46C116.193 514.967 115.566 514.287 115.1 513.42C114.646 512.54 114.42 511.547 114.42 510.44ZM123.44 510.48C123.44 509.72 123.28 509.06 122.96 508.5C122.653 507.94 122.246 507.513 121.74 507.22C121.233 506.927 120.686 506.78 120.1 506.78C119.513 506.78 118.966 506.927 118.46 507.22C117.953 507.5 117.54 507.92 117.22 508.48C116.913 509.027 116.76 509.68 116.76 510.44C116.76 511.2 116.913 511.867 117.22 512.44C117.54 513.013 117.953 513.453 118.46 513.76C118.98 514.053 119.526 514.2 120.1 514.2C120.686 514.2 121.233 514.053 121.74 513.76C122.246 513.467 122.653 513.04 122.96 512.48C123.28 511.907 123.44 511.24 123.44 510.48ZM129.894 503.52C129.481 503.52 129.134 503.38 128.854 503.1C128.574 502.82 128.434 502.473 128.434 502.06C128.434 501.647 128.574 501.3 128.854 501.02C129.134 500.74 129.481 500.6 129.894 500.6C130.294 500.6 130.634 500.74 130.914 501.02C131.194 501.3 131.334 501.647 131.334 502.06C131.334 502.473 131.194 502.82 130.914 503.1C130.634 503.38 130.294 503.52 129.894 503.52ZM131.014 504.98V516H128.734V504.98H131.014ZM139.568 504.8C140.434 504.8 141.208 504.98 141.888 505.34C142.581 505.7 143.121 506.233 143.508 506.94C143.894 507.647 144.088 508.5 144.088 509.5V516H141.828V509.84C141.828 508.853 141.581 508.1 141.088 507.58C140.594 507.047 139.921 506.78 139.068 506.78C138.214 506.78 137.534 507.047 137.028 507.58C136.534 508.1 136.288 508.853 136.288 509.84V516H134.008V504.98H136.288V506.24C136.661 505.787 137.134 505.433 137.708 505.18C138.294 504.927 138.914 504.8 139.568 504.8ZM151.436 504.8C152.289 504.8 153.043 504.973 153.696 505.32C154.363 505.653 154.883 506.073 155.256 506.58V504.98H157.556V516.18C157.556 517.193 157.343 518.093 156.916 518.88C156.489 519.68 155.869 520.307 155.056 520.76C154.256 521.213 153.296 521.44 152.176 521.44C150.683 521.44 149.443 521.087 148.456 520.38C147.469 519.687 146.909 518.74 146.776 517.54H149.036C149.209 518.113 149.576 518.573 150.136 518.92C150.709 519.28 151.389 519.46 152.176 519.46C153.096 519.46 153.836 519.18 154.396 518.62C154.969 518.06 155.256 517.247 155.256 516.18V514.34C154.869 514.86 154.343 515.3 153.676 515.66C153.023 516.007 152.276 516.18 151.436 516.18C150.476 516.18 149.596 515.94 148.796 515.46C148.009 514.967 147.383 514.287 146.916 513.42C146.463 512.54 146.236 511.547 146.236 510.44C146.236 509.333 146.463 508.353 146.916 507.5C147.383 506.647 148.009 505.987 148.796 505.52C149.596 505.04 150.476 504.8 151.436 504.8ZM155.256 510.48C155.256 509.72 155.096 509.06 154.776 508.5C154.469 507.94 154.063 507.513 153.556 507.22C153.049 506.927 152.503 506.78 151.916 506.78C151.329 506.78 150.783 506.927 150.276 507.22C149.769 507.5 149.356 507.92 149.036 508.48C148.729 509.027 148.576 509.68 148.576 510.44C148.576 511.2 148.729 511.867 149.036 512.44C149.356 513.013 149.769 513.453 150.276 513.76C150.796 514.053 151.343 514.2 151.916 514.2C152.503 514.2 153.049 514.053 153.556 513.76C154.063 513.467 154.469 513.04 154.776 512.48C155.096 511.907 155.256 511.24 155.256 510.48Z" fill="#6E6E6E"/>
<path d="M55.74 305.02C55.74 303.66 56.0533 302.44 56.68 301.36C57.32 300.28 58.18 299.44 59.26 298.84C60.3533 298.227 61.5467 297.92 62.84 297.92C64.32 297.92 65.6333 298.287 66.78 299.02C67.94 299.74 68.78 300.767 69.3 302.1H66.56C66.2 301.367 65.7 300.82 65.06 300.46C64.42 300.1 63.68 299.92 62.84 299.92C61.92 299.92 61.1 300.127 60.38 300.54C59.66 300.953 59.0933 301.547 58.68 302.32C58.28 303.093 58.08 303.993 58.08 305.02C58.08 306.047 58.28 306.947 58.68 307.72C59.0933 308.493 59.66 309.093 60.38 309.52C61.1 309.933 61.92 310.14 62.84 310.14C63.68 310.14 64.42 309.96 65.06 309.6C65.7 309.24 66.2 308.693 66.56 307.96H69.3C68.78 309.293 67.94 310.32 66.78 311.04C65.6333 311.76 64.32 312.12 62.84 312.12C61.5333 312.12 60.34 311.82 59.26 311.22C58.18 310.607 57.32 309.76 56.68 308.68C56.0533 307.6 55.74 306.38 55.74 305.02ZM76.7488 312.18C75.7088 312.18 74.7688 311.947 73.9288 311.48C73.0888 311 72.4288 310.333 71.9488 309.48C71.4688 308.613 71.2288 307.613 71.2288 306.48C71.2288 305.36 71.4754 304.367 71.9688 303.5C72.4621 302.633 73.1354 301.967 73.9888 301.5C74.8421 301.033 75.7954 300.8 76.8488 300.8C77.9021 300.8 78.8554 301.033 79.7088 301.5C80.5621 301.967 81.2354 302.633 81.7288 303.5C82.2221 304.367 82.4688 305.36 82.4688 306.48C82.4688 307.6 82.2154 308.593 81.7088 309.46C81.2021 310.327 80.5088 311 79.6288 311.48C78.7621 311.947 77.8021 312.18 76.7488 312.18ZM76.7488 310.2C77.3354 310.2 77.8821 310.06 78.3888 309.78C78.9088 309.5 79.3288 309.08 79.6488 308.52C79.9688 307.96 80.1288 307.28 80.1288 306.48C80.1288 305.68 79.9754 305.007 79.6688 304.46C79.3621 303.9 78.9554 303.48 78.4488 303.2C77.9421 302.92 77.3954 302.78 76.8088 302.78C76.2221 302.78 75.6754 302.92 75.1688 303.2C74.6754 303.48 74.2821 303.9 73.9888 304.46C73.6954 305.007 73.5488 305.68 73.5488 306.48C73.5488 307.667 73.8488 308.587 74.4488 309.24C75.0621 309.88 75.8288 310.2 76.7488 310.2ZM98.0627 300.8C98.9293 300.8 99.7027 300.98 100.383 301.34C101.076 301.7 101.616 302.233 102.003 302.94C102.403 303.647 102.603 304.5 102.603 305.5V312H100.343V305.84C100.343 304.853 100.096 304.1 99.6027 303.58C99.1093 303.047 98.436 302.78 97.5827 302.78C96.7293 302.78 96.0493 303.047 95.5427 303.58C95.0493 304.1 94.8027 304.853 94.8027 305.84V312H92.5427V305.84C92.5427 304.853 92.296 304.1 91.8027 303.58C91.3093 303.047 90.636 302.78 89.7827 302.78C88.9293 302.78 88.2493 303.047 87.7427 303.58C87.2493 304.1 87.0027 304.853 87.0027 305.84V312H84.7227V300.98H87.0027V302.24C87.376 301.787 87.8493 301.433 88.4227 301.18C88.996 300.927 89.6093 300.8 90.2627 300.8C91.1427 300.8 91.9293 300.987 92.6227 301.36C93.316 301.733 93.8493 302.273 94.2227 302.98C94.556 302.313 95.076 301.787 95.7827 301.4C96.4893 301 97.2493 300.8 98.0627 300.8ZM107.784 302.6C108.171 302.093 108.697 301.667 109.364 301.32C110.031 300.973 110.784 300.8 111.624 300.8C112.584 300.8 113.457 301.04 114.244 301.52C115.044 301.987 115.671 302.647 116.124 303.5C116.577 304.353 116.804 305.333 116.804 306.44C116.804 307.547 116.577 308.54 116.124 309.42C115.671 310.287 115.044 310.967 114.244 311.46C113.457 311.94 112.584 312.18 111.624 312.18C110.784 312.18 110.037 312.013 109.384 311.68C108.731 311.333 108.197 310.907 107.784 310.4V317.24H105.504V300.98H107.784V302.6ZM114.484 306.44C114.484 305.68 114.324 305.027 114.004 304.48C113.697 303.92 113.284 303.5 112.764 303.22C112.257 302.927 111.711 302.78 111.124 302.78C110.551 302.78 110.004 302.927 109.484 303.22C108.977 303.513 108.564 303.94 108.244 304.5C107.937 305.06 107.784 305.72 107.784 306.48C107.784 307.24 107.937 307.907 108.244 308.48C108.564 309.04 108.977 309.467 109.484 309.76C110.004 310.053 110.551 310.2 111.124 310.2C111.711 310.2 112.257 310.053 112.764 309.76C113.284 309.453 113.697 309.013 114.004 308.44C114.324 307.867 114.484 307.2 114.484 306.44ZM129.159 306.22C129.159 306.633 129.132 307.007 129.079 307.34H120.659C120.725 308.22 121.052 308.927 121.639 309.46C122.225 309.993 122.945 310.26 123.799 310.26C125.025 310.26 125.892 309.747 126.399 308.72H128.859C128.525 309.733 127.919 310.567 127.039 311.22C126.172 311.86 125.092 312.18 123.799 312.18C122.745 312.18 121.799 311.947 120.959 311.48C120.132 311 119.479 310.333 118.999 309.48C118.532 308.613 118.299 307.613 118.299 306.48C118.299 305.347 118.525 304.353 118.979 303.5C119.445 302.633 120.092 301.967 120.919 301.5C121.759 301.033 122.719 300.8 123.799 300.8C124.839 300.8 125.765 301.027 126.579 301.48C127.392 301.933 128.025 302.573 128.479 303.4C128.932 304.213 129.159 305.153 129.159 306.22ZM126.779 305.5C126.765 304.66 126.465 303.987 125.879 303.48C125.292 302.973 124.565 302.72 123.699 302.72C122.912 302.72 122.239 302.973 121.679 303.48C121.119 303.973 120.785 304.647 120.679 305.5H126.779ZM134.062 302.84V308.94C134.062 309.353 134.156 309.653 134.342 309.84C134.542 310.013 134.876 310.1 135.342 310.1H136.742V312H134.942C133.916 312 133.129 311.76 132.582 311.28C132.036 310.8 131.762 310.02 131.762 308.94V302.84H130.462V300.98H131.762V298.24H134.062V300.98H136.742V302.84H134.062ZM140.004 299.52C139.59 299.52 139.244 299.38 138.964 299.1C138.684 298.82 138.544 298.473 138.544 298.06C138.544 297.647 138.684 297.3 138.964 297.02C139.244 296.74 139.59 296.6 140.004 296.6C140.404 296.6 140.744 296.74 141.024 297.02C141.304 297.3 141.444 297.647 141.444 298.06C141.444 298.473 141.304 298.82 141.024 299.1C140.744 299.38 140.404 299.52 140.004 299.52ZM141.124 300.98V312H138.844V300.98H141.124ZM146.777 302.84V308.94C146.777 309.353 146.871 309.653 147.057 309.84C147.257 310.013 147.591 310.1 148.057 310.1H149.457V312H147.657C146.631 312 145.844 311.76 145.297 311.28C144.751 310.8 144.477 310.02 144.477 308.94V302.84H143.177V300.98H144.477V298.24H146.777V300.98H149.457V302.84H146.777ZM152.719 299.52C152.305 299.52 151.959 299.38 151.679 299.1C151.399 298.82 151.259 298.473 151.259 298.06C151.259 297.647 151.399 297.3 151.679 297.02C151.959 296.74 152.305 296.6 152.719 296.6C153.119 296.6 153.459 296.74 153.739 297.02C154.019 297.3 154.159 297.647 154.159 298.06C154.159 298.473 154.019 298.82 153.739 299.1C153.459 299.38 153.119 299.52 152.719 299.52ZM153.839 300.98V312H151.559V300.98H153.839ZM161.612 312.18C160.572 312.18 159.632 311.947 158.792 311.48C157.952 311 157.292 310.333 156.812 309.48C156.332 308.613 156.092 307.613 156.092 306.48C156.092 305.36 156.339 304.367 156.832 303.5C157.325 302.633 157.999 301.967 158.852 301.5C159.705 301.033 160.659 300.8 161.712 300.8C162.765 300.8 163.719 301.033 164.572 301.5C165.425 301.967 166.099 302.633 166.592 303.5C167.085 304.367 167.332 305.36 167.332 306.48C167.332 307.6 167.079 308.593 166.572 309.46C166.065 310.327 165.372 311 164.492 311.48C163.625 311.947 162.665 312.18 161.612 312.18ZM161.612 310.2C162.199 310.2 162.745 310.06 163.252 309.78C163.772 309.5 164.192 309.08 164.512 308.52C164.832 307.96 164.992 307.28 164.992 306.48C164.992 305.68 164.839 305.007 164.532 304.46C164.225 303.9 163.819 303.48 163.312 303.2C162.805 302.92 162.259 302.78 161.672 302.78C161.085 302.78 160.539 302.92 160.032 303.2C159.539 303.48 159.145 303.9 158.852 304.46C158.559 305.007 158.412 305.68 158.412 306.48C158.412 307.667 158.712 308.587 159.312 309.24C159.925 309.88 160.692 310.2 161.612 310.2ZM175.146 300.8C176.013 300.8 176.786 300.98 177.466 301.34C178.159 301.7 178.699 302.233 179.086 302.94C179.473 303.647 179.666 304.5 179.666 305.5V312H177.406V305.84C177.406 304.853 177.159 304.1 176.666 303.58C176.173 303.047 175.499 302.78 174.646 302.78C173.793 302.78 173.113 303.047 172.606 303.58C172.113 304.1 171.866 304.853 171.866 305.84V312H169.586V300.98H171.866V302.24C172.239 301.787 172.713 301.433 173.286 301.18C173.873 300.927 174.493 300.8 175.146 300.8Z" fill="#6E6E6E"/>
<circle cx="11.5" cy="11.5" r="11.5" transform="matrix(1 0 0 -1 20 102)" fill="#979797"/>
<circle cx="11.5" cy="11.5" r="11.5" transform="matrix(1 0 0 -1 9 290)" fill="#979797"/>
<circle cx="11.5" cy="11.5" r="11.5" transform="matrix(1 0 0 -1 20 492)" fill="#979797"/>
<path d="M79.584 95.168C78.352 95.168 77.248 94.968 76.272 94.568C75.296 94.168 74.512 93.576 73.92 92.792C73.344 92.008 73.04 91.064 73.008 89.96H77.376C77.44 90.584 77.656 91.064 78.024 91.4C78.392 91.72 78.872 91.88 79.464 91.88C80.072 91.88 80.552 91.744 80.904 91.472C81.256 91.184 81.432 90.792 81.432 90.296C81.432 89.88 81.288 89.536 81 89.264C80.728 88.992 80.384 88.768 79.968 88.592C79.568 88.416 78.992 88.216 78.24 87.992C77.152 87.656 76.264 87.32 75.576 86.984C74.888 86.648 74.296 86.152 73.8 85.496C73.304 84.84 73.056 83.984 73.056 82.928C73.056 81.36 73.624 80.136 74.76 79.256C75.896 78.36 77.376 77.912 79.2 77.912C81.056 77.912 82.552 78.36 83.688 79.256C84.824 80.136 85.432 81.368 85.512 82.952H81.072C81.04 82.408 80.84 81.984 80.472 81.68C80.104 81.36 79.632 81.2 79.056 81.2C78.56 81.2 78.16 81.336 77.856 81.608C77.552 81.864 77.4 82.24 77.4 82.736C77.4 83.28 77.656 83.704 78.168 84.008C78.68 84.312 79.48 84.64 80.568 84.992C81.656 85.36 82.536 85.712 83.208 86.048C83.896 86.384 84.488 86.872 84.984 87.512C85.48 88.152 85.728 88.976 85.728 89.984C85.728 90.944 85.48 91.816 84.984 92.6C84.504 93.384 83.8 94.008 82.872 94.472C81.944 94.936 80.848 95.168 79.584 95.168ZM87.4376 88.28C87.4376 86.904 87.6936 85.696 88.2056 84.656C88.7336 83.616 89.4456 82.816 90.3416 82.256C91.2376 81.696 92.2376 81.416 93.3416 81.416C94.2856 81.416 95.1096 81.608 95.8136 81.992C96.5336 82.376 97.0856 82.88 97.4696 83.504V81.608H101.574V95H97.4696V93.104C97.0696 93.728 96.5096 94.232 95.7896 94.616C95.0856 95 94.2616 95.192 93.3176 95.192C92.2296 95.192 91.2376 94.912 90.3416 94.352C89.4456 93.776 88.7336 92.968 88.2056 91.928C87.6936 90.872 87.4376 89.656 87.4376 88.28ZM97.4696 88.304C97.4696 87.28 97.1816 86.472 96.6056 85.88C96.0456 85.288 95.3576 84.992 94.5416 84.992C93.7256 84.992 93.0296 85.288 92.4536 85.88C91.8936 86.456 91.6136 87.256 91.6136 88.28C91.6136 89.304 91.8936 90.12 92.4536 90.728C93.0296 91.32 93.7256 91.616 94.5416 91.616C95.3576 91.616 96.0456 91.32 96.6056 90.728C97.1816 90.136 97.4696 89.328 97.4696 88.304ZM112.007 91.52V95H109.919C108.431 95 107.271 94.64 106.439 93.92C105.607 93.184 105.191 91.992 105.191 90.344V85.016H103.559V81.608H105.191V78.344H109.295V81.608H111.983V85.016H109.295V90.392C109.295 90.792 109.391 91.08 109.583 91.256C109.775 91.432 110.095 91.52 110.543 91.52H112.007ZM118.709 91.208L116.045 98.096H113.429L114.821 91.208H118.709ZM137.045 80.552L131.021 95H126.821L132.917 81.008H125.453V77.504H137.045V80.552ZM152.167 95.168C150.583 95.168 149.127 94.8 147.799 94.064C146.487 93.328 145.439 92.304 144.655 90.992C143.887 89.664 143.503 88.176 143.503 86.528C143.503 84.88 143.887 83.4 144.655 82.088C145.439 80.776 146.487 79.752 147.799 79.016C149.127 78.28 150.583 77.912 152.167 77.912C153.751 77.912 155.199 78.28 156.511 79.016C157.839 79.752 158.879 80.776 159.631 82.088C160.399 83.4 160.783 84.88 160.783 86.528C160.783 88.176 160.399 89.664 159.631 90.992C158.863 92.304 157.823 93.328 156.511 94.064C155.199 94.8 153.751 95.168 152.167 95.168ZM152.167 91.424C153.511 91.424 154.583 90.976 155.383 90.08C156.199 89.184 156.607 88 156.607 86.528C156.607 85.04 156.199 83.856 155.383 82.976C154.583 82.08 153.511 81.632 152.167 81.632C150.807 81.632 149.719 82.072 148.903 82.952C148.103 83.832 147.703 85.024 147.703 86.528C147.703 88.016 148.103 89.208 148.903 90.104C149.719 90.984 150.807 91.424 152.167 91.424ZM162.25 88.304C162.25 86.912 162.53 85.696 163.09 84.656C163.666 83.616 164.458 82.816 165.466 82.256C166.49 81.696 167.658 81.416 168.97 81.416C170.65 81.416 172.05 81.856 173.17 82.736C174.306 83.616 175.05 84.856 175.402 86.456H171.034C170.666 85.432 169.954 84.92 168.898 84.92C168.146 84.92 167.546 85.216 167.098 85.808C166.65 86.384 166.426 87.216 166.426 88.304C166.426 89.392 166.65 90.232 167.098 90.824C167.546 91.4 168.146 91.688 168.898 91.688C169.954 91.688 170.666 91.176 171.034 90.152H175.402C175.05 91.72 174.306 92.952 173.17 93.848C172.034 94.744 170.634 95.192 168.97 95.192C167.658 95.192 166.49 94.912 165.466 94.352C164.458 93.792 163.666 92.992 163.09 91.952C162.53 90.912 162.25 89.696 162.25 88.304ZM185.061 91.52V95H182.973C181.485 95 180.325 94.64 179.493 93.92C178.661 93.184 178.245 91.992 178.245 90.344V85.016H176.613V81.608H178.245V78.344H182.349V81.608H185.037V85.016H182.349V90.392C182.349 90.792 182.445 91.08 182.637 91.256C182.829 91.432 183.149 91.52 183.597 91.52H185.061ZM193.443 95.192C192.131 95.192 190.947 94.912 189.891 94.352C188.851 93.792 188.027 92.992 187.419 91.952C186.827 90.912 186.531 89.696 186.531 88.304C186.531 86.928 186.835 85.72 187.443 84.68C188.051 83.624 188.883 82.816 189.939 82.256C190.995 81.696 192.179 81.416 193.491 81.416C194.803 81.416 195.987 81.696 197.043 82.256C198.099 82.816 198.931 83.624 199.539 84.68C200.147 85.72 200.451 86.928 200.451 88.304C200.451 89.68 200.139 90.896 199.515 91.952C198.907 92.992 198.067 93.792 196.995 94.352C195.939 94.912 194.755 95.192 193.443 95.192ZM193.443 91.64C194.227 91.64 194.891 91.352 195.435 90.776C195.995 90.2 196.275 89.376 196.275 88.304C196.275 87.232 196.003 86.408 195.459 85.832C194.931 85.256 194.275 84.968 193.491 84.968C192.691 84.968 192.027 85.256 191.499 85.832C190.971 86.392 190.707 87.216 190.707 88.304C190.707 89.376 190.963 90.2 191.475 90.776C192.003 91.352 192.659 91.64 193.443 91.64ZM206.733 83.504C207.117 82.88 207.669 82.376 208.389 81.992C209.109 81.608 209.933 81.416 210.861 81.416C211.965 81.416 212.965 81.696 213.861 82.256C214.757 82.816 215.461 83.616 215.973 84.656C216.501 85.696 216.765 86.904 216.765 88.28C216.765 89.656 216.501 90.872 215.973 91.928C215.461 92.968 214.757 93.776 213.861 94.352C212.965 94.912 211.965 95.192 210.861 95.192C209.917 95.192 209.093 95.008 208.389 94.64C207.685 94.256 207.133 93.752 206.733 93.128V95H202.629V77.24H206.733V83.504ZM212.589 88.28C212.589 87.256 212.301 86.456 211.725 85.88C211.165 85.288 210.469 84.992 209.637 84.992C208.821 84.992 208.125 85.288 207.549 85.88C206.989 86.472 206.709 87.28 206.709 88.304C206.709 89.328 206.989 90.136 207.549 90.728C208.125 91.32 208.821 91.616 209.637 91.616C210.453 91.616 211.149 91.32 211.725 90.728C212.301 90.12 212.589 89.304 212.589 88.28ZM231.542 88.088C231.542 88.472 231.518 88.872 231.47 89.288H222.182C222.246 90.12 222.51 90.76 222.974 91.208C223.454 91.64 224.038 91.856 224.726 91.856C225.75 91.856 226.462 91.424 226.862 90.56H231.23C231.006 91.44 230.598 92.232 230.006 92.936C229.43 93.64 228.702 94.192 227.822 94.592C226.942 94.992 225.958 95.192 224.87 95.192C223.558 95.192 222.39 94.912 221.366 94.352C220.342 93.792 219.542 92.992 218.966 91.952C218.39 90.912 218.102 89.696 218.102 88.304C218.102 86.912 218.382 85.696 218.942 84.656C219.518 83.616 220.318 82.816 221.342 82.256C222.366 81.696 223.542 81.416 224.87 81.416C226.166 81.416 227.318 81.688 228.326 82.232C229.334 82.776 230.118 83.552 230.678 84.56C231.254 85.568 231.542 86.744 231.542 88.088ZM227.342 87.008C227.342 86.304 227.102 85.744 226.622 85.328C226.142 84.912 225.542 84.704 224.822 84.704C224.134 84.704 223.55 84.904 223.07 85.304C222.606 85.704 222.318 86.272 222.206 87.008H227.342ZM237.811 83.84C238.291 83.104 238.891 82.528 239.611 82.112C240.331 81.68 241.131 81.464 242.011 81.464V85.808H240.883C239.859 85.808 239.091 86.032 238.579 86.48C238.067 86.912 237.811 87.68 237.811 88.784V95H233.707V81.608H237.811V83.84ZM248.506 91.712C249.05 91.28 249.298 91.08 249.25 91.112C250.818 89.816 252.05 88.752 252.946 87.92C253.858 87.088 254.626 86.216 255.25 85.304C255.874 84.392 256.186 83.504 256.186 82.64C256.186 81.984 256.034 81.472 255.73 81.104C255.426 80.736 254.97 80.552 254.362 80.552C253.754 80.552 253.274 80.784 252.922 81.248C252.586 81.696 252.418 82.336 252.418 83.168H248.458C248.49 81.808 248.778 80.672 249.322 79.76C249.882 78.848 250.61 78.176 251.506 77.744C252.418 77.312 253.426 77.096 254.53 77.096C256.434 77.096 257.866 77.584 258.826 78.56C259.802 79.536 260.29 80.808 260.29 82.376C260.29 84.088 259.706 85.68 258.538 87.152C257.37 88.608 255.882 90.032 254.074 91.424H260.554V94.76H248.506V91.712ZM262.361 86C262.361 83.248 262.889 81.08 263.945 79.496C265.017 77.912 266.737 77.12 269.105 77.12C271.473 77.12 273.185 77.912 274.241 79.496C275.313 81.08 275.849 83.248 275.849 86C275.849 88.784 275.313 90.968 274.241 92.552C273.185 94.136 271.473 94.928 269.105 94.928C266.737 94.928 265.017 94.136 263.945 92.552C262.889 90.968 262.361 88.784 262.361 86ZM271.817 86C271.817 84.384 271.641 83.144 271.289 82.28C270.937 81.4 270.209 80.96 269.105 80.96C268.001 80.96 267.273 81.4 266.921 82.28C266.569 83.144 266.393 84.384 266.393 86C266.393 87.088 266.457 87.992 266.585 88.712C266.713 89.416 266.969 89.992 267.353 90.44C267.753 90.872 268.337 91.088 269.105 91.088C269.873 91.088 270.449 90.872 270.833 90.44C271.233 89.992 271.497 89.416 271.625 88.712C271.753 87.992 271.817 87.088 271.817 86ZM277.874 91.712C278.418 91.28 278.666 91.08 278.618 91.112C280.186 89.816 281.418 88.752 282.314 87.92C283.226 87.088 283.994 86.216 284.618 85.304C285.242 84.392 285.554 83.504 285.554 82.64C285.554 81.984 285.402 81.472 285.098 81.104C284.794 80.736 284.338 80.552 283.73 80.552C283.122 80.552 282.642 80.784 282.29 81.248C281.954 81.696 281.786 82.336 281.786 83.168H277.826C277.858 81.808 278.146 80.672 278.69 79.76C279.25 78.848 279.978 78.176 280.874 77.744C281.786 77.312 282.794 77.096 283.898 77.096C285.802 77.096 287.234 77.584 288.194 78.56C289.17 79.536 289.658 80.808 289.658 82.376C289.658 84.088 289.074 85.68 287.906 87.152C286.738 88.608 285.25 90.032 283.442 91.424H289.922V94.76H277.874V91.712ZM291.872 82.424C291.936 80.712 292.496 79.392 293.552 78.464C294.608 77.536 296.04 77.072 297.848 77.072C299.048 77.072 300.072 77.28 300.92 77.696C301.784 78.112 302.432 78.68 302.864 79.4C303.312 80.12 303.536 80.928 303.536 81.824C303.536 82.88 303.272 83.744 302.744 84.416C302.216 85.072 301.6 85.52 300.896 85.76V85.856C301.808 86.16 302.528 86.664 303.056 87.368C303.584 88.072 303.848 88.976 303.848 90.08C303.848 91.072 303.616 91.952 303.152 92.72C302.704 93.472 302.04 94.064 301.16 94.496C300.296 94.928 299.264 95.144 298.064 95.144C296.144 95.144 294.608 94.672 293.456 93.728C292.32 92.784 291.72 91.36 291.656 89.456H295.64C295.656 90.16 295.856 90.72 296.24 91.136C296.624 91.536 297.184 91.736 297.92 91.736C298.544 91.736 299.024 91.56 299.36 91.208C299.712 90.84 299.888 90.36 299.888 89.768C299.888 89 299.64 88.448 299.144 88.112C298.664 87.76 297.888 87.584 296.816 87.584H296.048V84.248H296.816C297.632 84.248 298.288 84.112 298.784 83.84C299.296 83.552 299.552 83.048 299.552 82.328C299.552 81.752 299.392 81.304 299.072 80.984C298.752 80.664 298.312 80.504 297.752 80.504C297.144 80.504 296.688 80.688 296.384 81.056C296.096 81.424 295.928 81.88 295.88 82.424H291.872Z" fill="black"/>
<path d="M79.672 258.152L75.28 275H70.312L67.624 263.912L64.84 275H59.872L55.6 258.152H59.992L62.416 270.416L65.416 258.152H69.928L72.808 270.416L75.256 258.152H79.672ZM94.3542 268.088C94.3542 268.472 94.3302 268.872 94.2822 269.288H84.9942C85.0582 270.12 85.3222 270.76 85.7862 271.208C86.2662 271.64 86.8502 271.856 87.5382 271.856C88.5622 271.856 89.2742 271.424 89.6742 270.56H94.0422C93.8182 271.44 93.4102 272.232 92.8182 272.936C92.2422 273.64 91.5142 274.192 90.6342 274.592C89.7542 274.992 88.7702 275.192 87.6822 275.192C86.3702 275.192 85.2022 274.912 84.1782 274.352C83.1542 273.792 82.3542 272.992 81.7782 271.952C81.2022 270.912 80.9142 269.696 80.9142 268.304C80.9142 266.912 81.1942 265.696 81.7542 264.656C82.3302 263.616 83.1302 262.816 84.1542 262.256C85.1782 261.696 86.3542 261.416 87.6822 261.416C88.9782 261.416 90.1302 261.688 91.1382 262.232C92.1462 262.776 92.9302 263.552 93.4902 264.56C94.0662 265.568 94.3542 266.744 94.3542 268.088ZM90.1542 267.008C90.1542 266.304 89.9142 265.744 89.4342 265.328C88.9542 264.912 88.3542 264.704 87.6342 264.704C86.9462 264.704 86.3622 264.904 85.8822 265.304C85.4182 265.704 85.1302 266.272 85.0182 267.008H90.1542ZM95.7033 268.28C95.7033 266.904 95.9593 265.696 96.4713 264.656C96.9993 263.616 97.7113 262.816 98.6073 262.256C99.5033 261.696 100.503 261.416 101.607 261.416C102.487 261.416 103.287 261.6 104.007 261.968C104.743 262.336 105.319 262.832 105.735 263.456V257.24H109.839V275H105.735V273.08C105.351 273.72 104.799 274.232 104.079 274.616C103.375 275 102.551 275.192 101.607 275.192C100.503 275.192 99.5033 274.912 98.6073 274.352C97.7113 273.776 96.9993 272.968 96.4713 271.928C95.9593 270.872 95.7033 269.656 95.7033 268.28ZM105.735 268.304C105.735 267.28 105.447 266.472 104.871 265.88C104.311 265.288 103.623 264.992 102.807 264.992C101.991 264.992 101.295 265.288 100.719 265.88C100.159 266.456 99.8793 267.256 99.8793 268.28C99.8793 269.304 100.159 270.12 100.719 270.728C101.295 271.32 101.991 271.616 102.807 271.616C103.623 271.616 104.311 271.32 104.871 270.728C105.447 270.136 105.735 269.328 105.735 268.304ZM117.224 271.208L114.56 278.096H111.944L113.336 271.208H117.224ZM124.233 271.712C124.777 271.28 125.025 271.08 124.977 271.112C126.545 269.816 127.777 268.752 128.673 267.92C129.585 267.088 130.353 266.216 130.977 265.304C131.601 264.392 131.913 263.504 131.913 262.64C131.913 261.984 131.761 261.472 131.457 261.104C131.153 260.736 130.697 260.552 130.089 260.552C129.481 260.552 129.001 260.784 128.649 261.248C128.313 261.696 128.145 262.336 128.145 263.168H124.185C124.217 261.808 124.505 260.672 125.049 259.76C125.609 258.848 126.337 258.176 127.233 257.744C128.145 257.312 129.153 257.096 130.257 257.096C132.161 257.096 133.593 257.584 134.553 258.56C135.529 259.536 136.017 260.808 136.017 262.376C136.017 264.088 135.433 265.68 134.265 267.152C133.097 268.608 131.609 270.032 129.801 271.424H136.281V274.76H124.233V271.712ZM150.424 261.056H142.936V264.368C143.256 264.016 143.704 263.728 144.28 263.504C144.856 263.28 145.48 263.168 146.152 263.168C147.352 263.168 148.344 263.44 149.128 263.984C149.928 264.528 150.512 265.232 150.88 266.096C151.248 266.96 151.432 267.896 151.432 268.904C151.432 270.776 150.904 272.264 149.848 273.368C148.792 274.456 147.304 275 145.384 275C144.104 275 142.992 274.784 142.048 274.352C141.104 273.904 140.376 273.288 139.864 272.504C139.352 271.72 139.072 270.816 139.024 269.792H143.032C143.128 270.288 143.36 270.704 143.728 271.04C144.096 271.36 144.6 271.52 145.24 271.52C145.992 271.52 146.552 271.28 146.92 270.8C147.288 270.32 147.472 269.68 147.472 268.88C147.472 268.096 147.28 267.496 146.896 267.08C146.512 266.664 145.952 266.456 145.216 266.456C144.672 266.456 144.224 266.592 143.872 266.864C143.52 267.12 143.288 267.464 143.176 267.896H139.216V257.456H150.424V261.056ZM167.159 275.168C165.575 275.168 164.119 274.8 162.791 274.064C161.479 273.328 160.431 272.304 159.647 270.992C158.879 269.664 158.495 268.176 158.495 266.528C158.495 264.88 158.879 263.4 159.647 262.088C160.431 260.776 161.479 259.752 162.791 259.016C164.119 258.28 165.575 257.912 167.159 257.912C168.743 257.912 170.191 258.28 171.503 259.016C172.831 259.752 173.871 260.776 174.623 262.088C175.391 263.4 175.775 264.88 175.775 266.528C175.775 268.176 175.391 269.664 174.623 270.992C173.855 272.304 172.815 273.328 171.503 274.064C170.191 274.8 168.743 275.168 167.159 275.168ZM167.159 271.424C168.503 271.424 169.575 270.976 170.375 270.08C171.191 269.184 171.599 268 171.599 266.528C171.599 265.04 171.191 263.856 170.375 262.976C169.575 262.08 168.503 261.632 167.159 261.632C165.799 261.632 164.711 262.072 163.895 262.952C163.095 263.832 162.695 265.024 162.695 266.528C162.695 268.016 163.095 269.208 163.895 270.104C164.711 270.984 165.799 271.424 167.159 271.424ZM177.242 268.304C177.242 266.912 177.522 265.696 178.082 264.656C178.658 263.616 179.45 262.816 180.458 262.256C181.482 261.696 182.65 261.416 183.962 261.416C185.642 261.416 187.042 261.856 188.162 262.736C189.298 263.616 190.042 264.856 190.394 266.456H186.026C185.658 265.432 184.946 264.92 183.89 264.92C183.138 264.92 182.538 265.216 182.09 265.808C181.642 266.384 181.418 267.216 181.418 268.304C181.418 269.392 181.642 270.232 182.09 270.824C182.538 271.4 183.138 271.688 183.89 271.688C184.946 271.688 185.658 271.176 186.026 270.152H190.394C190.042 271.72 189.298 272.952 188.162 273.848C187.026 274.744 185.626 275.192 183.962 275.192C182.65 275.192 181.482 274.912 180.458 274.352C179.45 273.792 178.658 272.992 178.082 271.952C177.522 270.912 177.242 269.696 177.242 268.304ZM200.054 271.52V275H197.966C196.478 275 195.318 274.64 194.486 273.92C193.654 273.184 193.238 271.992 193.238 270.344V265.016H191.606V261.608H193.238V258.344H197.342V261.608H200.03V265.016H197.342V270.392C197.342 270.792 197.438 271.08 197.63 271.256C197.822 271.432 198.142 271.52 198.59 271.52H200.054ZM208.436 275.192C207.124 275.192 205.94 274.912 204.884 274.352C203.844 273.792 203.02 272.992 202.412 271.952C201.82 270.912 201.524 269.696 201.524 268.304C201.524 266.928 201.828 265.72 202.436 264.68C203.044 263.624 203.876 262.816 204.932 262.256C205.988 261.696 207.172 261.416 208.484 261.416C209.796 261.416 210.98 261.696 212.036 262.256C213.092 262.816 213.924 263.624 214.532 264.68C215.14 265.72 215.444 266.928 215.444 268.304C215.444 269.68 215.132 270.896 214.508 271.952C213.9 272.992 213.06 273.792 211.988 274.352C210.932 274.912 209.748 275.192 208.436 275.192ZM208.436 271.64C209.22 271.64 209.884 271.352 210.428 270.776C210.988 270.2 211.268 269.376 211.268 268.304C211.268 267.232 210.996 266.408 210.452 265.832C209.924 265.256 209.268 264.968 208.484 264.968C207.684 264.968 207.02 265.256 206.492 265.832C205.964 266.392 205.7 267.216 205.7 268.304C205.7 269.376 205.956 270.2 206.468 270.776C206.996 271.352 207.652 271.64 208.436 271.64ZM221.725 263.504C222.109 262.88 222.661 262.376 223.381 261.992C224.101 261.608 224.925 261.416 225.853 261.416C226.957 261.416 227.957 261.696 228.853 262.256C229.749 262.816 230.453 263.616 230.965 264.656C231.493 265.696 231.757 266.904 231.757 268.28C231.757 269.656 231.493 270.872 230.965 271.928C230.453 272.968 229.749 273.776 228.853 274.352C227.957 274.912 226.957 275.192 225.853 275.192C224.909 275.192 224.085 275.008 223.381 274.64C222.677 274.256 222.125 273.752 221.725 273.128V275H217.621V257.24H221.725V263.504ZM227.581 268.28C227.581 267.256 227.293 266.456 226.717 265.88C226.157 265.288 225.461 264.992 224.629 264.992C223.813 264.992 223.117 265.288 222.541 265.88C221.981 266.472 221.701 267.28 221.701 268.304C221.701 269.328 221.981 270.136 222.541 270.728C223.117 271.32 223.813 271.616 224.629 271.616C225.445 271.616 226.141 271.32 226.717 270.728C227.293 270.12 227.581 269.304 227.581 268.28ZM246.534 268.088C246.534 268.472 246.51 268.872 246.462 269.288H237.174C237.238 270.12 237.502 270.76 237.966 271.208C238.446 271.64 239.03 271.856 239.718 271.856C240.742 271.856 241.454 271.424 241.854 270.56H246.222C245.998 271.44 245.59 272.232 244.998 272.936C244.422 273.64 243.694 274.192 242.814 274.592C241.934 274.992 240.95 275.192 239.862 275.192C238.55 275.192 237.382 274.912 236.358 274.352C235.334 273.792 234.534 272.992 233.958 271.952C233.382 270.912 233.094 269.696 233.094 268.304C233.094 266.912 233.374 265.696 233.934 264.656C234.51 263.616 235.31 262.816 236.334 262.256C237.358 261.696 238.534 261.416 239.862 261.416C241.158 261.416 242.31 261.688 243.318 262.232C244.326 262.776 245.11 263.552 245.67 264.56C246.246 265.568 246.534 266.744 246.534 268.088ZM242.334 267.008C242.334 266.304 242.094 265.744 241.614 265.328C241.134 264.912 240.534 264.704 239.814 264.704C239.126 264.704 238.542 264.904 238.062 265.304C237.598 265.704 237.31 266.272 237.198 267.008H242.334ZM252.803 263.84C253.283 263.104 253.883 262.528 254.603 262.112C255.323 261.68 256.123 261.464 257.003 261.464V265.808H255.875C254.851 265.808 254.083 266.032 253.571 266.48C253.059 266.912 252.803 267.68 252.803 268.784V275H248.699V261.608H252.803V263.84ZM263.499 271.712C264.043 271.28 264.291 271.08 264.243 271.112C265.811 269.816 267.043 268.752 267.939 267.92C268.851 267.088 269.619 266.216 270.243 265.304C270.867 264.392 271.179 263.504 271.179 262.64C271.179 261.984 271.027 261.472 270.723 261.104C270.419 260.736 269.963 260.552 269.355 260.552C268.747 260.552 268.267 260.784 267.915 261.248C267.579 261.696 267.411 262.336 267.411 263.168H263.451C263.483 261.808 263.771 260.672 264.315 259.76C264.875 258.848 265.603 258.176 266.499 257.744C267.411 257.312 268.419 257.096 269.523 257.096C271.427 257.096 272.859 257.584 273.819 258.56C274.795 259.536 275.283 260.808 275.283 262.376C275.283 264.088 274.699 265.68 273.531 267.152C272.363 268.608 270.875 270.032 269.067 271.424H275.547V274.76H263.499V271.712ZM277.353 266C277.353 263.248 277.881 261.08 278.937 259.496C280.009 257.912 281.729 257.12 284.097 257.12C286.465 257.12 288.177 257.912 289.233 259.496C290.305 261.08 290.841 263.248 290.841 266C290.841 268.784 290.305 270.968 289.233 272.552C288.177 274.136 286.465 274.928 284.097 274.928C281.729 274.928 280.009 274.136 278.937 272.552C277.881 270.968 277.353 268.784 277.353 266ZM286.809 266C286.809 264.384 286.633 263.144 286.281 262.28C285.929 261.4 285.201 260.96 284.097 260.96C282.993 260.96 282.265 261.4 281.913 262.28C281.561 263.144 281.385 264.384 281.385 266C281.385 267.088 281.449 267.992 281.577 268.712C281.705 269.416 281.961 269.992 282.345 270.44C282.745 270.872 283.329 271.088 284.097 271.088C284.865 271.088 285.441 270.872 285.825 270.44C286.225 269.992 286.489 269.416 286.617 268.712C286.745 267.992 286.809 267.088 286.809 266ZM292.866 271.712C293.41 271.28 293.658 271.08 293.61 271.112C295.178 269.816 296.41 268.752 297.306 267.92C298.218 267.088 298.986 266.216 299.61 265.304C300.234 264.392 300.546 263.504 300.546 262.64C300.546 261.984 300.394 261.472 300.09 261.104C299.786 260.736 299.33 260.552 298.722 260.552C298.114 260.552 297.634 260.784 297.282 261.248C296.946 261.696 296.778 262.336 296.778 263.168H292.818C292.85 261.808 293.138 260.672 293.682 259.76C294.242 258.848 294.97 258.176 295.866 257.744C296.778 257.312 297.786 257.096 298.89 257.096C300.794 257.096 302.226 257.584 303.186 258.56C304.162 259.536 304.65 260.808 304.65 262.376C304.65 264.088 304.066 265.68 302.898 267.152C301.73 268.608 300.242 270.032 298.434 271.424H304.914V274.76H292.866V271.712ZM306.865 262.424C306.929 260.712 307.489 259.392 308.545 258.464C309.601 257.536 311.033 257.072 312.841 257.072C314.041 257.072 315.065 257.28 315.913 257.696C316.777 258.112 317.425 258.68 317.857 259.4C318.305 260.12 318.529 260.928 318.529 261.824C318.529 262.88 318.265 263.744 317.737 264.416C317.209 265.072 316.593 265.52 315.889 265.76V265.856C316.801 266.16 317.521 266.664 318.049 267.368C318.577 268.072 318.841 268.976 318.841 270.08C318.841 271.072 318.609 271.952 318.145 272.72C317.697 273.472 317.033 274.064 316.153 274.496C315.289 274.928 314.257 275.144 313.057 275.144C311.137 275.144 309.601 274.672 308.449 273.728C307.313 272.784 306.713 271.36 306.649 269.456H310.633C310.649 270.16 310.849 270.72 311.233 271.136C311.617 271.536 312.177 271.736 312.913 271.736C313.537 271.736 314.017 271.56 314.353 271.208C314.705 270.84 314.881 270.36 314.881 269.768C314.881 269 314.633 268.448 314.137 268.112C313.657 267.76 312.881 267.584 311.809 267.584H311.041V264.248H311.809C312.625 264.248 313.281 264.112 313.777 263.84C314.289 263.552 314.545 263.048 314.545 262.328C314.545 261.752 314.385 261.304 314.065 260.984C313.745 260.664 313.305 260.504 312.745 260.504C312.137 260.504 311.681 260.688 311.377 261.056C311.089 261.424 310.921 261.88 310.873 262.424H306.865Z" fill="black"/>
<path d="M84.672 468.152L80.28 485H75.312L72.624 473.912L69.84 485H64.872L60.6 468.152H64.992L67.416 480.416L70.416 468.152H74.928L77.808 480.416L80.256 468.152H84.672ZM99.3542 478.088C99.3542 478.472 99.3302 478.872 99.2822 479.288H89.9942C90.0582 480.12 90.3222 480.76 90.7862 481.208C91.2662 481.64 91.8502 481.856 92.5382 481.856C93.5622 481.856 94.2742 481.424 94.6742 480.56H99.0422C98.8182 481.44 98.4102 482.232 97.8182 482.936C97.2422 483.64 96.5142 484.192 95.6342 484.592C94.7542 484.992 93.7702 485.192 92.6822 485.192C91.3702 485.192 90.2022 484.912 89.1782 484.352C88.1542 483.792 87.3542 482.992 86.7782 481.952C86.2022 480.912 85.9142 479.696 85.9142 478.304C85.9142 476.912 86.1942 475.696 86.7542 474.656C87.3302 473.616 88.1302 472.816 89.1542 472.256C90.1782 471.696 91.3542 471.416 92.6822 471.416C93.9782 471.416 95.1302 471.688 96.1382 472.232C97.1462 472.776 97.9302 473.552 98.4902 474.56C99.0662 475.568 99.3542 476.744 99.3542 478.088ZM95.1542 477.008C95.1542 476.304 94.9142 475.744 94.4342 475.328C93.9542 474.912 93.3542 474.704 92.6342 474.704C91.9462 474.704 91.3622 474.904 90.8822 475.304C90.4182 475.704 90.1302 476.272 90.0182 477.008H95.1542ZM100.703 478.28C100.703 476.904 100.959 475.696 101.471 474.656C101.999 473.616 102.711 472.816 103.607 472.256C104.503 471.696 105.503 471.416 106.607 471.416C107.487 471.416 108.287 471.6 109.007 471.968C109.743 472.336 110.319 472.832 110.735 473.456V467.24H114.839V485H110.735V483.08C110.351 483.72 109.799 484.232 109.079 484.616C108.375 485 107.551 485.192 106.607 485.192C105.503 485.192 104.503 484.912 103.607 484.352C102.711 483.776 101.999 482.968 101.471 481.928C100.959 480.872 100.703 479.656 100.703 478.28ZM110.735 478.304C110.735 477.28 110.447 476.472 109.871 475.88C109.311 475.288 108.623 474.992 107.807 474.992C106.991 474.992 106.295 475.288 105.719 475.88C105.159 476.456 104.879 477.256 104.879 478.28C104.879 479.304 105.159 480.12 105.719 480.728C106.295 481.32 106.991 481.616 107.807 481.616C108.623 481.616 109.311 481.32 109.871 480.728C110.447 480.136 110.735 479.328 110.735 478.304ZM122.224 481.208L119.56 488.096H116.944L118.336 481.208H122.224ZM129.233 481.712C129.777 481.28 130.025 481.08 129.977 481.112C131.545 479.816 132.777 478.752 133.673 477.92C134.585 477.088 135.353 476.216 135.977 475.304C136.601 474.392 136.913 473.504 136.913 472.64C136.913 471.984 136.761 471.472 136.457 471.104C136.153 470.736 135.697 470.552 135.089 470.552C134.481 470.552 134.001 470.784 133.649 471.248C133.313 471.696 133.145 472.336 133.145 473.168H129.185C129.217 471.808 129.505 470.672 130.049 469.76C130.609 468.848 131.337 468.176 132.233 467.744C133.145 467.312 134.153 467.096 135.257 467.096C137.161 467.096 138.593 467.584 139.553 468.56C140.529 469.536 141.017 470.808 141.017 472.376C141.017 474.088 140.433 475.68 139.265 477.152C138.097 478.608 136.609 480.032 134.801 481.424H141.281V484.76H129.233V481.712ZM155.424 471.056H147.936V474.368C148.256 474.016 148.704 473.728 149.28 473.504C149.856 473.28 150.48 473.168 151.152 473.168C152.352 473.168 153.344 473.44 154.128 473.984C154.928 474.528 155.512 475.232 155.88 476.096C156.248 476.96 156.432 477.896 156.432 478.904C156.432 480.776 155.904 482.264 154.848 483.368C153.792 484.456 152.304 485 150.384 485C149.104 485 147.992 484.784 147.048 484.352C146.104 483.904 145.376 483.288 144.864 482.504C144.352 481.72 144.072 480.816 144.024 479.792H148.032C148.128 480.288 148.36 480.704 148.728 481.04C149.096 481.36 149.6 481.52 150.24 481.52C150.992 481.52 151.552 481.28 151.92 480.8C152.288 480.32 152.472 479.68 152.472 478.88C152.472 478.096 152.28 477.496 151.896 477.08C151.512 476.664 150.952 476.456 150.216 476.456C149.672 476.456 149.224 476.592 148.872 476.864C148.52 477.12 148.288 477.464 148.176 477.896H144.216V467.456H155.424V471.056ZM172.159 485.168C170.575 485.168 169.119 484.8 167.791 484.064C166.479 483.328 165.431 482.304 164.647 480.992C163.879 479.664 163.495 478.176 163.495 476.528C163.495 474.88 163.879 473.4 164.647 472.088C165.431 470.776 166.479 469.752 167.791 469.016C169.119 468.28 170.575 467.912 172.159 467.912C173.743 467.912 175.191 468.28 176.503 469.016C177.831 469.752 178.871 470.776 179.623 472.088C180.391 473.4 180.775 474.88 180.775 476.528C180.775 478.176 180.391 479.664 179.623 480.992C178.855 482.304 177.815 483.328 176.503 484.064C175.191 484.8 173.743 485.168 172.159 485.168ZM172.159 481.424C173.503 481.424 174.575 480.976 175.375 480.08C176.191 479.184 176.599 478 176.599 476.528C176.599 475.04 176.191 473.856 175.375 472.976C174.575 472.08 173.503 471.632 172.159 471.632C170.799 471.632 169.711 472.072 168.895 472.952C168.095 473.832 167.695 475.024 167.695 476.528C167.695 478.016 168.095 479.208 168.895 480.104C169.711 480.984 170.799 481.424 172.159 481.424ZM182.242 478.304C182.242 476.912 182.522 475.696 183.082 474.656C183.658 473.616 184.45 472.816 185.458 472.256C186.482 471.696 187.65 471.416 188.962 471.416C190.642 471.416 192.042 471.856 193.162 472.736C194.298 473.616 195.042 474.856 195.394 476.456H191.026C190.658 475.432 189.946 474.92 188.89 474.92C188.138 474.92 187.538 475.216 187.09 475.808C186.642 476.384 186.418 477.216 186.418 478.304C186.418 479.392 186.642 480.232 187.09 480.824C187.538 481.4 188.138 481.688 188.89 481.688C189.946 481.688 190.658 481.176 191.026 480.152H195.394C195.042 481.72 194.298 482.952 193.162 483.848C192.026 484.744 190.626 485.192 188.962 485.192C187.65 485.192 186.482 484.912 185.458 484.352C184.45 483.792 183.658 482.992 183.082 481.952C182.522 480.912 182.242 479.696 182.242 478.304ZM205.054 481.52V485H202.966C201.478 485 200.318 484.64 199.486 483.92C198.654 483.184 198.238 481.992 198.238 480.344V475.016H196.606V471.608H198.238V468.344H202.342V471.608H205.03V475.016H202.342V480.392C202.342 480.792 202.438 481.08 202.63 481.256C202.822 481.432 203.142 481.52 203.59 481.52H205.054ZM213.436 485.192C212.124 485.192 210.94 484.912 209.884 484.352C208.844 483.792 208.02 482.992 207.412 481.952C206.82 480.912 206.524 479.696 206.524 478.304C206.524 476.928 206.828 475.72 207.436 474.68C208.044 473.624 208.876 472.816 209.932 472.256C210.988 471.696 212.172 471.416 213.484 471.416C214.796 471.416 215.98 471.696 217.036 472.256C218.092 472.816 218.924 473.624 219.532 474.68C220.14 475.72 220.444 476.928 220.444 478.304C220.444 479.68 220.132 480.896 219.508 481.952C218.9 482.992 218.06 483.792 216.988 484.352C215.932 484.912 214.748 485.192 213.436 485.192ZM213.436 481.64C214.22 481.64 214.884 481.352 215.428 480.776C215.988 480.2 216.268 479.376 216.268 478.304C216.268 477.232 215.996 476.408 215.452 475.832C214.924 475.256 214.268 474.968 213.484 474.968C212.684 474.968 212.02 475.256 211.492 475.832C210.964 476.392 210.7 477.216 210.7 478.304C210.7 479.376 210.956 480.2 211.468 480.776C211.996 481.352 212.652 481.64 213.436 481.64ZM226.725 473.504C227.109 472.88 227.661 472.376 228.381 471.992C229.101 471.608 229.925 471.416 230.853 471.416C231.957 471.416 232.957 471.696 233.853 472.256C234.749 472.816 235.453 473.616 235.965 474.656C236.493 475.696 236.757 476.904 236.757 478.28C236.757 479.656 236.493 480.872 235.965 481.928C235.453 482.968 234.749 483.776 233.853 484.352C232.957 484.912 231.957 485.192 230.853 485.192C229.909 485.192 229.085 485.008 228.381 484.64C227.677 484.256 227.125 483.752 226.725 483.128V485H222.621V467.24H226.725V473.504ZM232.581 478.28C232.581 477.256 232.293 476.456 231.717 475.88C231.157 475.288 230.461 474.992 229.629 474.992C228.813 474.992 228.117 475.288 227.541 475.88C226.981 476.472 226.701 477.28 226.701 478.304C226.701 479.328 226.981 480.136 227.541 480.728C228.117 481.32 228.813 481.616 229.629 481.616C230.445 481.616 231.141 481.32 231.717 480.728C232.293 480.12 232.581 479.304 232.581 478.28ZM251.534 478.088C251.534 478.472 251.51 478.872 251.462 479.288H242.174C242.238 480.12 242.502 480.76 242.966 481.208C243.446 481.64 244.03 481.856 244.718 481.856C245.742 481.856 246.454 481.424 246.854 480.56H251.222C250.998 481.44 250.59 482.232 249.998 482.936C249.422 483.64 248.694 484.192 247.814 484.592C246.934 484.992 245.95 485.192 244.862 485.192C243.55 485.192 242.382 484.912 241.358 484.352C240.334 483.792 239.534 482.992 238.958 481.952C238.382 480.912 238.094 479.696 238.094 478.304C238.094 476.912 238.374 475.696 238.934 474.656C239.51 473.616 240.31 472.816 241.334 472.256C242.358 471.696 243.534 471.416 244.862 471.416C246.158 471.416 247.31 471.688 248.318 472.232C249.326 472.776 250.11 473.552 250.67 474.56C251.246 475.568 251.534 476.744 251.534 478.088ZM247.334 477.008C247.334 476.304 247.094 475.744 246.614 475.328C246.134 474.912 245.534 474.704 244.814 474.704C244.126 474.704 243.542 474.904 243.062 475.304C242.598 475.704 242.31 476.272 242.198 477.008H247.334ZM257.803 473.84C258.283 473.104 258.883 472.528 259.603 472.112C260.323 471.68 261.123 471.464 262.003 471.464V475.808H260.875C259.851 475.808 259.083 476.032 258.571 476.48C258.059 476.912 257.803 477.68 257.803 478.784V485H253.699V471.608H257.803V473.84ZM268.499 481.712C269.043 481.28 269.291 481.08 269.243 481.112C270.811 479.816 272.043 478.752 272.939 477.92C273.851 477.088 274.619 476.216 275.243 475.304C275.867 474.392 276.179 473.504 276.179 472.64C276.179 471.984 276.027 471.472 275.723 471.104C275.419 470.736 274.963 470.552 274.355 470.552C273.747 470.552 273.267 470.784 272.915 471.248C272.579 471.696 272.411 472.336 272.411 473.168H268.451C268.483 471.808 268.771 470.672 269.315 469.76C269.875 468.848 270.603 468.176 271.499 467.744C272.411 467.312 273.419 467.096 274.523 467.096C276.427 467.096 277.859 467.584 278.819 468.56C279.795 469.536 280.283 470.808 280.283 472.376C280.283 474.088 279.699 475.68 278.531 477.152C277.363 478.608 275.875 480.032 274.067 481.424H280.547V484.76H268.499V481.712ZM282.353 476C282.353 473.248 282.881 471.08 283.937 469.496C285.009 467.912 286.729 467.12 289.097 467.12C291.465 467.12 293.177 467.912 294.233 469.496C295.305 471.08 295.841 473.248 295.841 476C295.841 478.784 295.305 480.968 294.233 482.552C293.177 484.136 291.465 484.928 289.097 484.928C286.729 484.928 285.009 484.136 283.937 482.552C282.881 480.968 282.353 478.784 282.353 476ZM291.809 476C291.809 474.384 291.633 473.144 291.281 472.28C290.929 471.4 290.201 470.96 289.097 470.96C287.993 470.96 287.265 471.4 286.913 472.28C286.561 473.144 286.385 474.384 286.385 476C286.385 477.088 286.449 477.992 286.577 478.712C286.705 479.416 286.961 479.992 287.345 480.44C287.745 480.872 288.329 481.088 289.097 481.088C289.865 481.088 290.441 480.872 290.825 480.44C291.225 479.992 291.489 479.416 291.617 478.712C291.745 477.992 291.809 477.088 291.809 476ZM297.866 481.712C298.41 481.28 298.658 481.08 298.61 481.112C300.178 479.816 301.41 478.752 302.306 477.92C303.218 477.088 303.986 476.216 304.61 475.304C305.234 474.392 305.546 473.504 305.546 472.64C305.546 471.984 305.394 471.472 305.09 471.104C304.786 470.736 304.33 470.552 303.722 470.552C303.114 470.552 302.634 470.784 302.282 471.248C301.946 471.696 301.778 472.336 301.778 473.168H297.818C297.85 471.808 298.138 470.672 298.682 469.76C299.242 468.848 299.97 468.176 300.866 467.744C301.778 467.312 302.786 467.096 303.89 467.096C305.794 467.096 307.226 467.584 308.186 468.56C309.162 469.536 309.65 470.808 309.65 472.376C309.65 474.088 309.066 475.68 307.898 477.152C306.73 478.608 305.242 480.032 303.434 481.424H309.914V484.76H297.866V481.712ZM311.865 472.424C311.929 470.712 312.489 469.392 313.545 468.464C314.601 467.536 316.033 467.072 317.841 467.072C319.041 467.072 320.065 467.28 320.913 467.696C321.777 468.112 322.425 468.68 322.857 469.4C323.305 470.12 323.529 470.928 323.529 471.824C323.529 472.88 323.265 473.744 322.737 474.416C322.209 475.072 321.593 475.52 320.889 475.76V475.856C321.801 476.16 322.521 476.664 323.049 477.368C323.577 478.072 323.841 478.976 323.841 480.08C323.841 481.072 323.609 481.952 323.145 482.72C322.697 483.472 322.033 484.064 321.153 484.496C320.289 484.928 319.257 485.144 318.057 485.144C316.137 485.144 314.601 484.672 313.449 483.728C312.313 482.784 311.713 481.36 311.649 479.456H315.633C315.649 480.16 315.849 480.72 316.233 481.136C316.617 481.536 317.177 481.736 317.913 481.736C318.537 481.736 319.017 481.56 319.353 481.208C319.705 480.84 319.881 480.36 319.881 479.768C319.881 479 319.633 478.448 319.137 478.112C318.657 477.76 317.881 477.584 316.809 477.584H316.041V474.248H316.809C317.625 474.248 318.281 474.112 318.777 473.84C319.289 473.552 319.545 473.048 319.545 472.328C319.545 471.752 319.385 471.304 319.065 470.984C318.745 470.664 318.305 470.504 317.745 470.504C317.137 470.504 316.681 470.688 316.377 471.056C316.089 471.424 315.921 471.88 315.873 472.424H311.865Z" fill="black"/>
<path d="M28.845 14.43V19.225H22.335V39H16.35V19.225H9.84V14.43H28.845ZM37.8337 14.43V39H31.8487V14.43H37.8337ZM69.996 14.43V39H64.011V24.265L58.516 39H53.686L48.156 24.23V39H42.171V14.43H49.241L56.136 31.44L62.961 14.43H69.996ZM80.2849 19.225V24.195H88.2999V28.815H80.2849V34.205H89.3499V39H74.2999V14.43H89.3499V19.225H80.2849ZM99.2204 34.38H107.06V39H93.2354V14.43H99.2204V34.38ZM115.9 14.43V39H109.915V14.43H115.9ZM142.217 39H136.232L126.222 23.845V39H120.237V14.43H126.222L136.232 29.655V14.43H142.217V39ZM152.541 19.225V24.195H160.556V28.815H152.541V34.205H161.606V39H146.556V14.43H161.606V19.225H152.541Z" fill="black"/>
</svg>
