<svg width="1666" height="644" viewBox="0 0 1666 644" fill="none" xmlns="http://www.w3.org/2000/svg">
<path fill-rule="evenodd" clip-rule="evenodd" d="M1412.18 293.968C1368 282.052 1303.81 264.738 1279.56 227.909C1278.04 225.6 1275.6 222.131 1272.58 217.822C1245.71 179.48 1172.25 74.6562 1279.56 129.608C1319.35 149.989 1348.04 162.427 1369.46 171.714C1412.28 190.279 1426.04 196.248 1441.46 227.909C1446.96 239.19 1452.5 249.845 1457.55 259.552C1479.55 301.821 1492.2 326.126 1450.55 305.972C1442.82 302.233 1428.94 298.489 1412.18 293.968ZM1282.63 141.741C1308.97 150.378 1347.24 162.926 1360.72 185.981C1361.57 187.427 1362.93 189.603 1364.61 192.307C1379.63 216.361 1420.68 282.125 1357.54 245.421C1334.12 231.808 1317.17 223.357 1304.51 217.048C1279.21 204.435 1271.07 200.38 1262.77 180.737C1259.81 173.737 1256.8 167.115 1254.06 161.081C1242.12 134.81 1235.26 119.704 1259.8 133.24C1264.35 135.751 1272.63 138.464 1282.63 141.741Z" fill="#F98E3D"/>
<path fill-rule="evenodd" clip-rule="evenodd" d="M256.738 189.473C306.828 283.296 353.158 370.077 524.769 333.16C689.611 297.699 706.011 357.803 721.074 413.005C736.382 469.106 750.308 520.143 917.263 460.66C959.729 445.53 983.535 406.157 1007.87 365.905C1051.9 293.09 1097.66 217.401 1258.77 277.16C1546.02 383.705 1522.08 336.183 1478.41 249.496C1446.86 186.884 1405.02 103.84 1462.71 43.6599C1600.28 -99.8401 1671.95 140.16 1666.18 333.16C1661.56 487.56 1664.25 605.16 1666.18 644.66H0V3.15994C159.596 7.51301 209.816 101.583 256.738 189.473ZM641.651 391.66C664.231 391.66 682.536 379.572 682.536 364.66C682.536 349.748 664.231 337.66 641.651 337.66C619.071 337.66 600.766 349.748 600.766 364.66C600.766 379.572 619.071 391.66 641.651 391.66Z" fill="#F98E3D"/>
</svg>
